<svg id="Layer_2" data-name="Layer 2" xmlns="http://www.w3.org/2000/svg" viewBox="0 0 103.97 147.98"><defs><style>.cls-1{fill:#fff;}</style></defs><title>beerflix</title><g id="popcorn"><path class="cls-1" d="M30.61,148h0c-2.66,0-4.83-2.45-4.83-5.44L11.25,57.15c0-3,3.33-5.44,7.41-5.44h0c4.07,0,7.41,2.45,7.41,5.44l9.38,85.39C35.44,145.53,33.26,148,30.61,148Z"/><path class="cls-1" d="M45.1,148h0c-2.66,0-4.83-2.45-4.83-5.44l-6.8-85.39c0-3,3.33-5.44,7.41-5.44h0c4.07,0,7.41,2.45,7.41,5.44l1.65,85.39C49.93,145.53,47.76,148,45.1,148Z"/><path class="cls-1" d="M59.6,148h0c-2.66,0-4.83-2.45-4.83-5.44l0.92-85.39c0-3,3.33-5.44,7.41-5.44h0c4.07,0,7.41,2.45,7.41,5.44l-6.07,85.39C64.43,145.53,62.25,148,59.6,148Z"/><path class="cls-1" d="M74.09,148h0c-2.66,0-4.83-2.45-4.83-5.44L77.9,57.15c0-3,3.33-5.44,7.41-5.44h0c4.07,0,7.41,2.45,7.41,5.44L78.92,142.54C78.92,145.53,76.75,148,74.09,148Z"/></g><g id="hops"><path class="cls-1" d="M101.09,16.58a16.36,16.36,0,0,0-7.91,1.5,14.05,14.05,0,0,1-.43,4.3c0.59,0,1,0,1,0l1.31,0,0,1.31c0,0.06,0,.51,0,1.21a14,14,0,0,1,4.52-.47A16.4,16.4,0,0,0,101.09,16.58Z"/><path class="cls-1" d="M93.64,31.49A17.56,17.56,0,0,1,100.36,34a16.23,16.23,0,0,0,3.6-7.41s-4.85-1.7-9.06-.22A22.79,22.79,0,0,1,93.64,31.49Z"/><path class="cls-1" d="M91,13.63a16.19,16.19,0,0,0-7.45,3.64A17.49,17.49,0,0,1,86,23.81a22.9,22.9,0,0,1,5.36-1.3C92.68,18.34,91,13.63,91,13.63Z"/><path class="cls-1" d="M83.73,21.14l0.18,0a17.35,17.35,0,0,0-3.1-5.41,23.93,23.93,0,0,0-4.7,8l0.32,0.5A18.06,18.06,0,0,1,83.73,21.14Z"/><path class="cls-1" d="M93.41,41.17l0.28,0.18a23.94,23.94,0,0,0,8-4.71,17.29,17.29,0,0,0-5-3A17.89,17.89,0,0,1,93.41,41.17Z"/><path class="cls-1" d="M85.91,29.46c0.44,0,.72,0,0.76,0l1.31,0,0,1.31s0,0.31,0,.74a16,16,0,0,1,4.22-.09,21.83,21.83,0,0,0,1.54-7.72,21.8,21.8,0,0,0-7.84,1.59A16.57,16.57,0,0,1,85.91,29.46Z"/><path class="cls-1" d="M95.37,33.42a16.69,16.69,0,0,0-7.49-.52,23.05,23.05,0,0,1-1.34,5.69,17.11,17.11,0,0,1,5.69,1.89A16.57,16.57,0,0,0,95.37,33.42Z"/><path class="cls-1" d="M83.94,22.47a16.71,16.71,0,0,0-6.86,3,17,17,0,0,1,1.78,5.46,23,23,0,0,1,5.67-1.33A16.92,16.92,0,0,0,83.94,22.47Z"/><path class="cls-1" d="M94.65,43.74A16.47,16.47,0,0,0,84.52,39.8a21.3,21.3,0,0,0,2.13-9,21.29,21.29,0,0,0-9,2.13A16.47,16.47,0,0,0,73.7,22.8,17.23,17.23,0,0,0,70,32.64,15,15,0,0,0,72.1,41,21.63,21.63,0,0,0,71.43,46a21.64,21.64,0,0,0,5.05-.66,15,15,0,0,0,8.32,2.11A17.24,17.24,0,0,0,94.65,43.74Z"/><path class="cls-1" d="M56.57,6.61A16.41,16.41,0,0,0,52.1,0a16.37,16.37,0,0,0-4.53,6.65A14,14,0,0,1,50.31,10C50.7,9.56,51,9.3,51,9.26l0.94-.91,0.94,0.91s0.36,0.35.83,0.88A14,14,0,0,1,56.57,6.61Z"/><path class="cls-1" d="M54.64,11.29a22.79,22.79,0,0,1,2.73,4.53,17.56,17.56,0,0,1,6.52-3A16.23,16.23,0,0,0,61.2,5S56.57,7.27,54.64,11.29Z"/><path class="cls-1" d="M42.91,5a16.19,16.19,0,0,0-2.7,7.84,17.49,17.49,0,0,1,6.3,2.94,22.9,22.9,0,0,1,2.87-4.71C47.4,7.2,42.91,5,42.91,5Z"/><path class="cls-1" d="M61.08,15.2a17.89,17.89,0,0,1,3,7.62l0.33-.07a23.94,23.94,0,0,0,2.36-9A17.24,17.24,0,0,0,61.08,15.2Z"/><path class="cls-1" d="M56.31,16.78a21.83,21.83,0,0,0-4.37-6.55,21.8,21.8,0,0,0-4.42,6.67,16.57,16.57,0,0,1,3,2.95c0.3-.33.49-0.52,0.53-0.55l0.94-.91,0.94,0.91s0.22,0.21.51,0.53A16,16,0,0,1,56.31,16.78Z"/><path class="cls-1" d="M43.15,15.36a17.29,17.29,0,0,0-6-1.63,23.93,23.93,0,0,0,2.37,9l0.58,0.13a18.05,18.05,0,0,1,3-7.38Z"/><path class="cls-1" d="M54.3,20.89a23.06,23.06,0,0,1,3.08,5,17.11,17.11,0,0,1,5.36-2.68A16.6,16.6,0,0,0,60,16,16.69,16.69,0,0,0,54.3,20.89Z"/><path class="cls-1" d="M44.14,16.3a16.78,16.78,0,0,0-2.74,7,17,17,0,0,1,5.11,2.6,23,23,0,0,1,3.06-5A16.92,16.92,0,0,0,44.14,16.3Z"/><path class="cls-1" d="M51.94,20.27a21.29,21.29,0,0,0-4.86,7.87,16.47,16.47,0,0,0-9.95-4.37,17.23,17.23,0,0,0,4.33,9.58,15,15,0,0,0,7.38,4.39,21.63,21.63,0,0,0,3.1,4,21.64,21.64,0,0,0,3.1-4,15,15,0,0,0,7.38-4.39,17.24,17.24,0,0,0,4.33-9.58,16.47,16.47,0,0,0-9.95,4.37A21.3,21.3,0,0,0,51.94,20.27Z"/><path class="cls-1" d="M10.78,17.87a16.4,16.4,0,0,0-7.84-1.52,16.36,16.36,0,0,0,1.5,7.91,14.05,14.05,0,0,1,4.3.43c0-.59,0-1,0-1l0-1.31,1.31,0c0.06,0,.51,0,1.21,0A14,14,0,0,1,10.78,17.87Z"/><path class="cls-1" d="M12.72,22.54a22.8,22.8,0,0,1,5.14,1.27,17.56,17.56,0,0,1,2.49-6.73,16.23,16.23,0,0,0-7.41-3.6S11.24,18.33,12.72,22.54Z"/><path class="cls-1" d="M0,26.42a16.19,16.19,0,0,0,3.64,7.45,17.49,17.49,0,0,1,6.54-2.37,22.9,22.9,0,0,1-1.3-5.36C4.71,24.77,0,26.42,0,26.42Z"/><path class="cls-1" d="M20,20.75A17.89,17.89,0,0,1,27.54,24l0.18-.28a23.94,23.94,0,0,0-4.71-8A17.29,17.29,0,0,0,20,20.75Z"/><path class="cls-1" d="M17.78,25.24a21.83,21.83,0,0,0-7.72-1.54,21.8,21.8,0,0,0,1.59,7.84,16.57,16.57,0,0,1,4.17,0c0-.44,0-0.72,0-0.76l0-1.31,1.31,0s0.31,0,.74,0A16,16,0,0,1,17.78,25.24Z"/><path class="cls-1" d="M7.5,33.72l0-.18a17.35,17.35,0,0,0-5.41,3.1,23.93,23.93,0,0,0,8,4.7l0.5-.32A18.05,18.05,0,0,1,7.5,33.72Z"/><path class="cls-1" d="M19.79,22.08a16.69,16.69,0,0,0-.52,7.49A23.06,23.06,0,0,1,25,30.91a17.11,17.11,0,0,1,1.89-5.69A16.57,16.57,0,0,0,19.79,22.08Z"/><path class="cls-1" d="M8.84,33.51a16.71,16.71,0,0,0,3,6.86,17,17,0,0,1,5.46-1.78,23,23,0,0,1-1.33-5.67A16.92,16.92,0,0,0,8.84,33.51Z"/><path class="cls-1" d="M33.82,32.64a17.24,17.24,0,0,0-3.71-9.84,16.47,16.47,0,0,0-3.94,10.13,21.3,21.3,0,0,0-9-2.13,21.29,21.29,0,0,0,2.13,9A16.47,16.47,0,0,0,9.16,43.75,17.23,17.23,0,0,0,19,47.46a15,15,0,0,0,8.32-2.11,21.63,21.63,0,0,0,5.05.66A21.64,21.64,0,0,0,31.71,41,15,15,0,0,0,33.82,32.64Z"/></g></svg>